<svg id="visual" viewBox="0 0 1920 1080" width="1920" height="1080" xmlns="http://www.w3.org/2000/svg" xmlns:xlink="http://www.w3.org/1999/xlink" version="1.1"><rect x="0" y="0" width="1920" height="1080" fill="#e3e3e3"></rect><defs><linearGradient id="grad1_0" x1="43.8%" y1="0%" x2="100%" y2="100%"><stop offset="14.444444444444446%" stop-color="#222222" stop-opacity="1"></stop><stop offset="85.55555555555554%" stop-color="#222222" stop-opacity="1"></stop></linearGradient></defs><defs><linearGradient id="grad1_1" x1="43.8%" y1="0%" x2="100%" y2="100%"><stop offset="14.444444444444446%" stop-color="#222222" stop-opacity="1"></stop><stop offset="85.55555555555554%" stop-color="#3e3e3e" stop-opacity="1"></stop></linearGradient></defs><defs><linearGradient id="grad1_2" x1="43.8%" y1="0%" x2="100%" y2="100%"><stop offset="14.444444444444446%" stop-color="#5c5c5c" stop-opacity="1"></stop><stop offset="85.55555555555554%" stop-color="#3e3e3e" stop-opacity="1"></stop></linearGradient></defs><defs><linearGradient id="grad1_3" x1="43.8%" y1="0%" x2="100%" y2="100%"><stop offset="14.444444444444446%" stop-color="#5c5c5c" stop-opacity="1"></stop><stop offset="85.55555555555554%" stop-color="#7b7b7b" stop-opacity="1"></stop></linearGradient></defs><defs><linearGradient id="grad1_4" x1="43.8%" y1="0%" x2="100%" y2="100%"><stop offset="14.444444444444446%" stop-color="#9d9d9d" stop-opacity="1"></stop><stop offset="85.55555555555554%" stop-color="#7b7b7b" stop-opacity="1"></stop></linearGradient></defs><defs><linearGradient id="grad1_5" x1="43.8%" y1="0%" x2="100%" y2="100%"><stop offset="14.444444444444446%" stop-color="#9d9d9d" stop-opacity="1"></stop><stop offset="85.55555555555554%" stop-color="#bfbfbf" stop-opacity="1"></stop></linearGradient></defs><defs><linearGradient id="grad1_6" x1="43.8%" y1="0%" x2="100%" y2="100%"><stop offset="14.444444444444446%" stop-color="#e3e3e3" stop-opacity="1"></stop><stop offset="85.55555555555554%" stop-color="#bfbfbf" stop-opacity="1"></stop></linearGradient></defs><defs><linearGradient id="grad2_0" x1="0%" y1="0%" x2="56.3%" y2="100%"><stop offset="14.444444444444446%" stop-color="#222222" stop-opacity="1"></stop><stop offset="85.55555555555554%" stop-color="#222222" stop-opacity="1"></stop></linearGradient></defs><defs><linearGradient id="grad2_1" x1="0%" y1="0%" x2="56.3%" y2="100%"><stop offset="14.444444444444446%" stop-color="#3e3e3e" stop-opacity="1"></stop><stop offset="85.55555555555554%" stop-color="#222222" stop-opacity="1"></stop></linearGradient></defs><defs><linearGradient id="grad2_2" x1="0%" y1="0%" x2="56.3%" y2="100%"><stop offset="14.444444444444446%" stop-color="#3e3e3e" stop-opacity="1"></stop><stop offset="85.55555555555554%" stop-color="#5c5c5c" stop-opacity="1"></stop></linearGradient></defs><defs><linearGradient id="grad2_3" x1="0%" y1="0%" x2="56.3%" y2="100%"><stop offset="14.444444444444446%" stop-color="#7b7b7b" stop-opacity="1"></stop><stop offset="85.55555555555554%" stop-color="#5c5c5c" stop-opacity="1"></stop></linearGradient></defs><defs><linearGradient id="grad2_4" x1="0%" y1="0%" x2="56.3%" y2="100%"><stop offset="14.444444444444446%" stop-color="#7b7b7b" stop-opacity="1"></stop><stop offset="85.55555555555554%" stop-color="#9d9d9d" stop-opacity="1"></stop></linearGradient></defs><defs><linearGradient id="grad2_5" x1="0%" y1="0%" x2="56.3%" y2="100%"><stop offset="14.444444444444446%" stop-color="#bfbfbf" stop-opacity="1"></stop><stop offset="85.55555555555554%" stop-color="#9d9d9d" stop-opacity="1"></stop></linearGradient></defs><defs><linearGradient id="grad2_6" x1="0%" y1="0%" x2="56.3%" y2="100%"><stop offset="14.444444444444446%" stop-color="#bfbfbf" stop-opacity="1"></stop><stop offset="85.55555555555554%" stop-color="#e3e3e3" stop-opacity="1"></stop></linearGradient></defs><g transform="translate(1920, 0)"><path d="M0 864C-114.7 854.3 -229.3 844.5 -330.6 798.2C-432 751.9 -519.9 669 -579.1 579.1C-638.3 489.2 -668.7 392.4 -711.4 294.7C-754.1 197 -809 98.5 -864 0L0 0Z" fill="#d1d1d1"></path><path d="M0 740.6C-98.3 732.2 -196.6 723.9 -283.4 684.2C-370.2 644.5 -445.7 573.4 -496.4 496.4C-547.1 419.3 -573.2 336.3 -609.8 252.6C-646.3 168.8 -693.5 84.4 -740.6 0L0 0Z" fill="#aeaeae"></path><path d="M0 617.1C-81.9 610.2 -163.8 603.2 -236.2 570.2C-308.5 537.1 -371.4 477.9 -413.7 413.7C-455.9 349.4 -477.6 280.3 -508.1 210.5C-538.6 140.7 -577.9 70.4 -617.1 0L0 0Z" fill="#8c8c8c"></path><path d="M0 493.7C-65.5 488.2 -131 482.6 -188.9 456.1C-246.8 429.7 -297.1 382.3 -330.9 330.9C-364.7 279.6 -382.1 224.2 -406.5 168.4C-430.9 112.6 -462.3 56.3 -493.7 0L0 0Z" fill="#6b6b6b"></path><path d="M0 370.3C-49.1 366.1 -98.3 361.9 -141.7 342.1C-185.1 322.2 -222.8 286.7 -248.2 248.2C-273.6 209.7 -286.6 168.2 -304.9 126.3C-323.2 84.4 -346.7 42.2 -370.3 0L0 0Z" fill="#4c4c4c"></path><path d="M0 246.9C-32.8 244.1 -65.5 241.3 -94.5 228.1C-123.4 214.8 -148.6 191.1 -165.5 165.5C-182.4 139.8 -191.1 112.1 -203.3 84.2C-215.4 56.3 -231.2 28.1 -246.9 0L0 0Z" fill="#303030"></path><path d="M0 123.4C-16.4 122 -32.8 120.6 -47.2 114C-61.7 107.4 -74.3 95.6 -82.7 82.7C-91.2 69.9 -95.5 56.1 -101.6 42.1C-107.7 28.1 -115.6 14.1 -123.4 0L0 0Z" fill="#222222"></path></g><g transform="translate(0, 1080)"><path d="M0 -864C118.1 -856.6 236.2 -849.2 330.6 -798.2C425.1 -747.3 495.9 -652.9 568.5 -568.5C641.1 -484.2 715.4 -409.9 765 -316.9C814.5 -223.8 839.3 -111.9 864 0L0 0Z" fill="#d1d1d1"></path><path d="M0 -740.6C101.2 -734.2 202.4 -727.9 283.4 -684.2C364.4 -640.5 425.1 -559.6 487.3 -487.3C549.5 -415 613.2 -351.4 655.7 -271.6C698.2 -191.8 719.4 -95.9 740.6 0L0 0Z" fill="#aeaeae"></path><path d="M0 -617.1C84.3 -611.8 168.7 -606.5 236.2 -570.2C303.6 -533.8 354.2 -466.3 406.1 -406.1C457.9 -345.8 511 -292.8 546.4 -226.3C581.8 -159.9 599.5 -79.9 617.1 0L0 0Z" fill="#8c8c8c"></path><path d="M0 -493.7C67.5 -489.5 135 -485.2 188.9 -456.1C242.9 -427 283.4 -373.1 324.9 -324.9C366.3 -276.7 408.8 -234.2 437.1 -181.1C465.4 -127.9 479.6 -63.9 493.7 0L0 0Z" fill="#6b6b6b"></path><path d="M0 -370.3C50.6 -367.1 101.2 -363.9 141.7 -342.1C182.2 -320.3 212.5 -279.8 243.6 -243.6C274.8 -207.5 306.6 -175.7 327.8 -135.8C349.1 -95.9 359.7 -48 370.3 0L0 0Z" fill="#4c4c4c"></path><path d="M0 -246.9C33.7 -244.7 67.5 -242.6 94.5 -228.1C121.5 -213.5 141.7 -186.5 162.4 -162.4C183.2 -138.3 204.4 -117.1 218.6 -90.5C232.7 -63.9 239.8 -32 246.9 0L0 0Z" fill="#303030"></path><path d="M0 -123.4C16.9 -122.4 33.7 -121.3 47.2 -114C60.7 -106.8 70.8 -93.3 81.2 -81.2C91.6 -69.2 102.2 -58.6 109.3 -45.3C116.4 -32 119.9 -16 123.4 0L0 0Z" fill="#222222"></path></g></svg>