<svg id="visual" viewBox="0 0 960 540" width="960" height="540" xmlns="http://www.w3.org/2000/svg" xmlns:xlink="http://www.w3.org/1999/xlink" version="1.1"><rect x="0" y="0" width="960" height="540" fill="#e3e3e3"></rect><defs><linearGradient id="grad1_0" x1="43.8%" y1="0%" x2="100%" y2="100%"><stop offset="14.444444444444446%" stop-color="#222222" stop-opacity="1"></stop><stop offset="85.55555555555554%" stop-color="#222222" stop-opacity="1"></stop></linearGradient></defs><defs><linearGradient id="grad1_1" x1="43.8%" y1="0%" x2="100%" y2="100%"><stop offset="14.444444444444446%" stop-color="#222222" stop-opacity="1"></stop><stop offset="85.55555555555554%" stop-color="#3e3e3e" stop-opacity="1"></stop></linearGradient></defs><defs><linearGradient id="grad1_2" x1="43.8%" y1="0%" x2="100%" y2="100%"><stop offset="14.444444444444446%" stop-color="#5c5c5c" stop-opacity="1"></stop><stop offset="85.55555555555554%" stop-color="#3e3e3e" stop-opacity="1"></stop></linearGradient></defs><defs><linearGradient id="grad1_3" x1="43.8%" y1="0%" x2="100%" y2="100%"><stop offset="14.444444444444446%" stop-color="#5c5c5c" stop-opacity="1"></stop><stop offset="85.55555555555554%" stop-color="#7b7b7b" stop-opacity="1"></stop></linearGradient></defs><defs><linearGradient id="grad1_4" x1="43.8%" y1="0%" x2="100%" y2="100%"><stop offset="14.444444444444446%" stop-color="#9d9d9d" stop-opacity="1"></stop><stop offset="85.55555555555554%" stop-color="#7b7b7b" stop-opacity="1"></stop></linearGradient></defs><defs><linearGradient id="grad1_5" x1="43.8%" y1="0%" x2="100%" y2="100%"><stop offset="14.444444444444446%" stop-color="#9d9d9d" stop-opacity="1"></stop><stop offset="85.55555555555554%" stop-color="#bfbfbf" stop-opacity="1"></stop></linearGradient></defs><defs><linearGradient id="grad1_6" x1="43.8%" y1="0%" x2="100%" y2="100%"><stop offset="14.444444444444446%" stop-color="#e3e3e3" stop-opacity="1"></stop><stop offset="85.55555555555554%" stop-color="#bfbfbf" stop-opacity="1"></stop></linearGradient></defs><defs><linearGradient id="grad2_0" x1="0%" y1="0%" x2="56.3%" y2="100%"><stop offset="14.444444444444446%" stop-color="#222222" stop-opacity="1"></stop><stop offset="85.55555555555554%" stop-color="#222222" stop-opacity="1"></stop></linearGradient></defs><defs><linearGradient id="grad2_1" x1="0%" y1="0%" x2="56.3%" y2="100%"><stop offset="14.444444444444446%" stop-color="#3e3e3e" stop-opacity="1"></stop><stop offset="85.55555555555554%" stop-color="#222222" stop-opacity="1"></stop></linearGradient></defs><defs><linearGradient id="grad2_2" x1="0%" y1="0%" x2="56.3%" y2="100%"><stop offset="14.444444444444446%" stop-color="#3e3e3e" stop-opacity="1"></stop><stop offset="85.55555555555554%" stop-color="#5c5c5c" stop-opacity="1"></stop></linearGradient></defs><defs><linearGradient id="grad2_3" x1="0%" y1="0%" x2="56.3%" y2="100%"><stop offset="14.444444444444446%" stop-color="#7b7b7b" stop-opacity="1"></stop><stop offset="85.55555555555554%" stop-color="#5c5c5c" stop-opacity="1"></stop></linearGradient></defs><defs><linearGradient id="grad2_4" x1="0%" y1="0%" x2="56.3%" y2="100%"><stop offset="14.444444444444446%" stop-color="#7b7b7b" stop-opacity="1"></stop><stop offset="85.55555555555554%" stop-color="#9d9d9d" stop-opacity="1"></stop></linearGradient></defs><defs><linearGradient id="grad2_5" x1="0%" y1="0%" x2="56.3%" y2="100%"><stop offset="14.444444444444446%" stop-color="#bfbfbf" stop-opacity="1"></stop><stop offset="85.55555555555554%" stop-color="#9d9d9d" stop-opacity="1"></stop></linearGradient></defs><defs><linearGradient id="grad2_6" x1="0%" y1="0%" x2="56.3%" y2="100%"><stop offset="14.444444444444446%" stop-color="#bfbfbf" stop-opacity="1"></stop><stop offset="85.55555555555554%" stop-color="#e3e3e3" stop-opacity="1"></stop></linearGradient></defs><g transform="translate(960, 0)"><path d="M0 432C-48.8 399.8 -97.7 367.5 -141.6 341.8C-185.5 316.1 -224.4 297 -270.8 270.8C-317.2 244.7 -371 211.6 -399.1 165.3C-427.2 119 -429.6 59.5 -432 0L0 0Z" fill="#d1d1d1"></path><path d="M0 370.3C-41.9 342.7 -83.7 315 -121.4 293C-159 271 -192.4 254.5 -232.1 232.1C-271.9 209.7 -318 181.4 -342.1 141.7C-366.2 102 -368.2 51 -370.3 0L0 0Z" fill="#aeaeae"></path><path d="M0 308.6C-34.9 285.6 -69.8 262.5 -101.1 244.2C-132.5 225.8 -160.3 212.1 -193.4 193.4C-226.6 174.8 -265 151.2 -285.1 118.1C-305.2 85 -306.9 42.5 -308.6 0L0 0Z" fill="#8c8c8c"></path><path d="M0 246.9C-27.9 228.4 -55.8 210 -80.9 195.3C-106 180.6 -128.3 169.7 -154.8 154.8C-181.3 139.8 -212 120.9 -228.1 94.5C-244.1 68 -245.5 34 -246.9 0L0 0Z" fill="#6b6b6b"></path><path d="M0 185.1C-20.9 171.3 -41.9 157.5 -60.7 146.5C-79.5 135.5 -96.2 127.3 -116.1 116.1C-135.9 104.9 -159 90.7 -171 70.9C-183.1 51 -184.1 25.5 -185.1 0L0 0Z" fill="#4c4c4c"></path><path d="M0 123.4C-14 114.2 -27.9 105 -40.5 97.7C-53 90.3 -64.1 84.8 -77.4 77.4C-90.6 69.9 -106 60.5 -114 47.2C-122.1 34 -122.7 17 -123.4 0L0 0Z" fill="#303030"></path><path d="M0 61.7C-7 57.1 -14 52.5 -20.2 48.8C-26.5 45.2 -32.1 42.4 -38.7 38.7C-45.3 35 -53 30.2 -57 23.6C-61 17 -61.4 8.5 -61.7 0L0 0Z" fill="#222222"></path></g><g transform="translate(0, 540)"><path d="M0 -432C45.1 -401.9 90.3 -371.8 147.7 -356.6C205.2 -341.5 274.9 -341.2 305.5 -305.5C336 -269.7 327.3 -198.4 341.8 -141.6C356.4 -84.8 394.2 -42.4 432 0L0 0Z" fill="#d1d1d1"></path><path d="M0 -370.3C38.7 -344.5 77.4 -318.7 126.6 -305.7C175.9 -292.7 235.7 -292.5 261.8 -261.8C288 -231.2 280.5 -170.1 293 -121.4C305.5 -72.7 337.9 -36.3 370.3 0L0 0Z" fill="#aeaeae"></path><path d="M0 -308.6C32.2 -287.1 64.5 -265.6 105.5 -254.7C146.5 -243.9 196.4 -243.7 218.2 -218.2C240 -192.7 233.8 -141.7 244.2 -101.1C254.6 -60.5 281.6 -30.3 308.6 0L0 0Z" fill="#8c8c8c"></path><path d="M0 -246.9C25.8 -229.7 51.6 -212.4 84.4 -203.8C117.2 -195.1 157.1 -195 174.6 -174.6C192 -154.1 187 -113.4 195.3 -80.9C203.6 -48.4 225.3 -24.2 246.9 0L0 0Z" fill="#6b6b6b"></path><path d="M0 -185.1C19.3 -172.2 38.7 -159.3 63.3 -152.8C87.9 -146.3 117.8 -146.2 130.9 -130.9C144 -115.6 140.3 -85 146.5 -60.7C152.7 -36.3 168.9 -18.2 185.1 0L0 0Z" fill="#4c4c4c"></path><path d="M0 -123.4C12.9 -114.8 25.8 -106.2 42.2 -101.9C58.6 -97.6 78.6 -97.5 87.3 -87.3C96 -77.1 93.5 -56.7 97.7 -40.5C101.8 -24.2 112.6 -12.1 123.4 0L0 0Z" fill="#303030"></path><path d="M0 -61.7C6.4 -57.4 12.9 -53.1 21.1 -50.9C29.3 -48.8 39.3 -48.7 43.6 -43.6C48 -38.5 46.8 -28.3 48.8 -20.2C50.9 -12.1 56.3 -6.1 61.7 0L0 0Z" fill="#222222"></path></g></svg>